<?xml version="1.0"?>
<svg xmlns="http://www.w3.org/2000/svg" viewBox="0 0 576 768" width="576" height="768">
<defs><filter id="gs"><feColorMatrix type="saturate" values="0"></feColorMatrix></filter></defs>
<rect width="576" height="864" fill="#fff"></rect>
<g filter="url(#gs)"><text x="40" y="52" font-size="23" font-weight="700" fill="#1B3A5C" letter-spacing="0.3">Hub and Spoke</text><rect x="40" y="62" width="46" height="4" rx="2" fill="#E8A33D"></rect><text x="536" y="34" text-anchor="end" font-size="9.5" font-weight="600" fill="#5C6B7A" letter-spacing="1.5">CHAPTER 14</text><text x="40" y="84" font-size="11" fill="#5C6B7A">Central expertise, embedded in the operational units</text><text x="40" y="106" font-size="10" fill="#1A1A1A" font-weight="400"><tspan x="40" dy="0">A central hub builds and runs the tools; each operational unit holds an analyst paired with a</tspan><tspan x="40" dy="12.5">domain expert.</tspan></text><line x1="288" y1="346" x2="150" y2="214" stroke="#5C6B7A" stroke-width="1.4"></line><line x1="288" y1="346" x2="426" y2="214" stroke="#5C6B7A" stroke-width="1.4"></line><line x1="288" y1="346" x2="150" y2="470" stroke="#5C6B7A" stroke-width="1.4"></line><line x1="288" y1="346" x2="426" y2="470" stroke="#5C6B7A" stroke-width="1.4"></line><circle cx="288" cy="346" r="74" fill="#1B3A5C"></circle><text x="288" y="326" text-anchor="middle" font-size="14" font-weight="700" fill="#fff" letter-spacing="1">HUB</text><text x="288" y="344" text-anchor="middle" font-size="9" fill="#DDE6EE">Analytics team</text><text x="288" y="359" text-anchor="middle" font-size="9" fill="#DDE6EE">tool development</text><text x="288" y="372" text-anchor="middle" font-size="9" fill="#DDE6EE">&amp; operation</text><rect x="80" y="181" width="140" height="66" rx="8" fill="#fff" stroke="#C7D1DA"></rect><text x="150" y="199" text-anchor="middle" font-size="11" font-weight="700" fill="#1B3A5C">Declarations</text><g transform="translate(120,207) scale(0.8333333333333334)"><circle cx="12" cy="7.4" r="4.2" fill="#5C6B7A"></circle><path d="M3.3 21C3.3 14.8 7.6 12.3 12 12.3S20.7 14.8 20.7 21Z" fill="#5C6B7A"></path></g><g transform="translate(160,207) scale(0.8333333333333334)"><circle cx="12" cy="7.4" r="4.2" fill="#1B3A5C"></circle><path d="M3.3 21C3.3 14.8 7.6 12.3 12 12.3S20.7 14.8 20.7 21Z" fill="#1B3A5C"></path></g><line x1="144" y1="217" x2="158" y2="217" stroke="#5C6B7A" stroke-width="1.4"></line><text x="150" y="241" text-anchor="middle" font-size="8" fill="#5C6B7A">analyst + domain expert</text><rect x="356" y="181" width="140" height="66" rx="8" fill="#fff" stroke="#C7D1DA"></rect><text x="426" y="199" text-anchor="middle" font-size="11" font-weight="700" fill="#1B3A5C">Risk targeting</text><g transform="translate(396,207) scale(0.8333333333333334)"><circle cx="12" cy="7.4" r="4.2" fill="#5C6B7A"></circle><path d="M3.3 21C3.3 14.8 7.6 12.3 12 12.3S20.7 14.8 20.7 21Z" fill="#5C6B7A"></path></g><g transform="translate(436,207) scale(0.8333333333333334)"><circle cx="12" cy="7.4" r="4.2" fill="#1B3A5C"></circle><path d="M3.3 21C3.3 14.8 7.6 12.3 12 12.3S20.7 14.8 20.7 21Z" fill="#1B3A5C"></path></g><line x1="420" y1="217" x2="434" y2="217" stroke="#5C6B7A" stroke-width="1.4"></line><text x="426" y="241" text-anchor="middle" font-size="8" fill="#5C6B7A">analyst + domain expert</text><rect x="80" y="437" width="140" height="66" rx="8" fill="#fff" stroke="#C7D1DA"></rect><text x="150" y="455" text-anchor="middle" font-size="11" font-weight="700" fill="#1B3A5C">Post-clearance</text><g transform="translate(120,463) scale(0.8333333333333334)"><circle cx="12" cy="7.4" r="4.2" fill="#5C6B7A"></circle><path d="M3.3 21C3.3 14.8 7.6 12.3 12 12.3S20.7 14.8 20.7 21Z" fill="#5C6B7A"></path></g><g transform="translate(160,463) scale(0.8333333333333334)"><circle cx="12" cy="7.4" r="4.2" fill="#1B3A5C"></circle><path d="M3.3 21C3.3 14.8 7.6 12.3 12 12.3S20.7 14.8 20.7 21Z" fill="#1B3A5C"></path></g><line x1="144" y1="473" x2="158" y2="473" stroke="#5C6B7A" stroke-width="1.4"></line><text x="150" y="497" text-anchor="middle" font-size="8" fill="#5C6B7A">analyst + domain expert</text><rect x="356" y="437" width="140" height="66" rx="8" fill="#fff" stroke="#C7D1DA"></rect><text x="426" y="455" text-anchor="middle" font-size="11" font-weight="700" fill="#1B3A5C">Passenger</text><g transform="translate(396,463) scale(0.8333333333333334)"><circle cx="12" cy="7.4" r="4.2" fill="#5C6B7A"></circle><path d="M3.3 21C3.3 14.8 7.6 12.3 12 12.3S20.7 14.8 20.7 21Z" fill="#5C6B7A"></path></g><g transform="translate(436,463) scale(0.8333333333333334)"><circle cx="12" cy="7.4" r="4.2" fill="#1B3A5C"></circle><path d="M3.3 21C3.3 14.8 7.6 12.3 12 12.3S20.7 14.8 20.7 21Z" fill="#1B3A5C"></path></g><line x1="420" y1="473" x2="434" y2="473" stroke="#5C6B7A" stroke-width="1.4"></line><text x="426" y="497" text-anchor="middle" font-size="8" fill="#5C6B7A">analyst + domain expert</text><path d="M188 452 Q250 420 240 392" fill="none" stroke="#5C6B7A" stroke-width="1.4" stroke-dasharray="3 3"></path><path d="M236 398 242 388 246 399Z" fill="#5C6B7A"></path><text x="196" y="440" font-size="8" font-style="italic" fill="#5C6B7A">career path</text><rect x="178" y="580" width="220" height="56" rx="8" fill="#F4F7F9" stroke="#5C6B7A" stroke-width="1.2" stroke-dasharray="5 4"></rect><text x="288" y="602" text-anchor="middle" font-size="11" font-weight="700" fill="#5C6B7A">VENDOR</text><text x="288" y="620" text-anchor="middle" font-size="9" fill="#1A1A1A">refines tools · does not own them</text><path d="M288 580 V434" fill="none" stroke="#5C6B7A" stroke-width="1.4" stroke-dasharray="4 3"></path><path d="M284 440 288 430 292 440Z" fill="#5C6B7A"></path><rect x="316" y="494" width="150" height="20" rx="10" fill="#fff" stroke="#E8A33D" stroke-width="1.5"></rect><text x="391" y="508" text-anchor="middle" font-size="8.3" font-weight="700" fill="#B77A16">tools owned in-house</text><g transform="translate(40,662) scale(0.6666666666666666)"><circle cx="12" cy="7.4" r="4.2" fill="#5C6B7A"></circle><path d="M3.3 21C3.3 14.8 7.6 12.3 12 12.3S20.7 14.8 20.7 21Z" fill="#5C6B7A"></path></g><text x="60" y="674" font-size="9.5" fill="#1A1A1A">Analyst</text><g transform="translate(150,662) scale(0.6666666666666666)"><circle cx="12" cy="7.4" r="4.2" fill="#1B3A5C"></circle><path d="M3.3 21C3.3 14.8 7.6 12.3 12 12.3S20.7 14.8 20.7 21Z" fill="#1B3A5C"></path></g><text x="170" y="674" font-size="9.5" fill="#1A1A1A">Domain expert</text><rect x="40" y="690" width="496" height="34" rx="4" fill="#5C6B7A"></rect><rect x="40" y="690" width="5" height="34" rx="2.5" fill="#E8A33D"></rect><text x="292" y="711.5" text-anchor="middle" font-size="10.6" font-weight="600" fill="#fff" letter-spacing="0.2">One centre of expertise; a pair in every unit — the hub-and-spoke (KCS) pattern.</text></g>
</svg>