<?xml version="1.0"?>
<svg xmlns="http://www.w3.org/2000/svg" viewBox="0 0 576 696" width="576" height="696">
<defs><filter id="gs"><feColorMatrix type="saturate" values="0"></feColorMatrix></filter></defs>
<rect width="576" height="864" fill="#fff"></rect>
<g filter="url(#gs)"><text x="40" y="52" font-size="23" font-weight="700" fill="#1B3A5C" letter-spacing="0.3">Autonomy × Agency</text><rect x="40" y="62" width="46" height="4" rx="2" fill="#E8A33D"></rect><text x="536" y="34" text-anchor="end" font-size="9.5" font-weight="600" fill="#5C6B7A" letter-spacing="1.5">CHAPTER 9</text><text x="40" y="84" font-size="11" fill="#5C6B7A">Two independent dials, set on purpose</text><text x="40" y="106" font-size="10" fill="#1A1A1A" font-weight="400"><tspan x="40" dy="0">Autonomy is how independently a system acts; agency is how much it can touch. Grant each</tspan><tspan x="40" dy="12.5">deliberately.</tspan></text><defs><clipPath id="tr"><rect x="328" y="210" width="172" height="172"></rect></clipPath></defs><rect x="156" y="210" width="172" height="172" fill="#F4F7F9"></rect><rect x="328" y="210" width="172" height="172" fill="#FBF3E6"></rect><rect x="156" y="382" width="172" height="172" fill="#F7F9FA"></rect><rect x="328" y="382" width="172" height="172" fill="#F4F7F9"></rect><g clip-path="url(#tr)"><line x1="-16" y1="210" x2="328" y2="554" stroke="#E8A33D" stroke-width="0.7" opacity="0.42"></line><line x1="-7" y1="210" x2="337" y2="554" stroke="#E8A33D" stroke-width="0.7" opacity="0.42"></line><line x1="2" y1="210" x2="346" y2="554" stroke="#E8A33D" stroke-width="0.7" opacity="0.42"></line><line x1="11" y1="210" x2="355" y2="554" stroke="#E8A33D" stroke-width="0.7" opacity="0.42"></line><line x1="20" y1="210" x2="364" y2="554" stroke="#E8A33D" stroke-width="0.7" opacity="0.42"></line><line x1="29" y1="210" x2="373" y2="554" stroke="#E8A33D" stroke-width="0.7" opacity="0.42"></line><line x1="38" y1="210" x2="382" y2="554" stroke="#E8A33D" stroke-width="0.7" opacity="0.42"></line><line x1="47" y1="210" x2="391" y2="554" stroke="#E8A33D" stroke-width="0.7" opacity="0.42"></line><line x1="56" y1="210" x2="400" y2="554" stroke="#E8A33D" stroke-width="0.7" opacity="0.42"></line><line x1="65" y1="210" x2="409" y2="554" stroke="#E8A33D" stroke-width="0.7" opacity="0.42"></line><line x1="74" y1="210" x2="418" y2="554" stroke="#E8A33D" stroke-width="0.7" opacity="0.42"></line><line x1="83" y1="210" x2="427" y2="554" stroke="#E8A33D" stroke-width="0.7" opacity="0.42"></line><line x1="92" y1="210" x2="436" y2="554" stroke="#E8A33D" stroke-width="0.7" opacity="0.42"></line><line x1="101" y1="210" x2="445" y2="554" stroke="#E8A33D" stroke-width="0.7" opacity="0.42"></line><line x1="110" y1="210" x2="454" y2="554" stroke="#E8A33D" stroke-width="0.7" opacity="0.42"></line><line x1="119" y1="210" x2="463" y2="554" stroke="#E8A33D" stroke-width="0.7" opacity="0.42"></line><line x1="128" y1="210" x2="472" y2="554" stroke="#E8A33D" stroke-width="0.7" opacity="0.42"></line><line x1="137" y1="210" x2="481" y2="554" stroke="#E8A33D" stroke-width="0.7" opacity="0.42"></line><line x1="146" y1="210" x2="490" y2="554" stroke="#E8A33D" stroke-width="0.7" opacity="0.42"></line><line x1="155" y1="210" x2="499" y2="554" stroke="#E8A33D" stroke-width="0.7" opacity="0.42"></line><line x1="164" y1="210" x2="508" y2="554" stroke="#E8A33D" stroke-width="0.7" opacity="0.42"></line><line x1="173" y1="210" x2="517" y2="554" stroke="#E8A33D" stroke-width="0.7" opacity="0.42"></line><line x1="182" y1="210" x2="526" y2="554" stroke="#E8A33D" stroke-width="0.7" opacity="0.42"></line><line x1="191" y1="210" x2="535" y2="554" stroke="#E8A33D" stroke-width="0.7" opacity="0.42"></line><line x1="200" y1="210" x2="544" y2="554" stroke="#E8A33D" stroke-width="0.7" opacity="0.42"></line><line x1="209" y1="210" x2="553" y2="554" stroke="#E8A33D" stroke-width="0.7" opacity="0.42"></line><line x1="218" y1="210" x2="562" y2="554" stroke="#E8A33D" stroke-width="0.7" opacity="0.42"></line><line x1="227" y1="210" x2="571" y2="554" stroke="#E8A33D" stroke-width="0.7" opacity="0.42"></line><line x1="236" y1="210" x2="580" y2="554" stroke="#E8A33D" stroke-width="0.7" opacity="0.42"></line><line x1="245" y1="210" x2="589" y2="554" stroke="#E8A33D" stroke-width="0.7" opacity="0.42"></line><line x1="254" y1="210" x2="598" y2="554" stroke="#E8A33D" stroke-width="0.7" opacity="0.42"></line><line x1="263" y1="210" x2="607" y2="554" stroke="#E8A33D" stroke-width="0.7" opacity="0.42"></line><line x1="272" y1="210" x2="616" y2="554" stroke="#E8A33D" stroke-width="0.7" opacity="0.42"></line><line x1="281" y1="210" x2="625" y2="554" stroke="#E8A33D" stroke-width="0.7" opacity="0.42"></line><line x1="290" y1="210" x2="634" y2="554" stroke="#E8A33D" stroke-width="0.7" opacity="0.42"></line><line x1="299" y1="210" x2="643" y2="554" stroke="#E8A33D" stroke-width="0.7" opacity="0.42"></line><line x1="308" y1="210" x2="652" y2="554" stroke="#E8A33D" stroke-width="0.7" opacity="0.42"></line><line x1="317" y1="210" x2="661" y2="554" stroke="#E8A33D" stroke-width="0.7" opacity="0.42"></line><line x1="326" y1="210" x2="670" y2="554" stroke="#E8A33D" stroke-width="0.7" opacity="0.42"></line><line x1="335" y1="210" x2="679" y2="554" stroke="#E8A33D" stroke-width="0.7" opacity="0.42"></line><line x1="344" y1="210" x2="688" y2="554" stroke="#E8A33D" stroke-width="0.7" opacity="0.42"></line><line x1="353" y1="210" x2="697" y2="554" stroke="#E8A33D" stroke-width="0.7" opacity="0.42"></line><line x1="362" y1="210" x2="706" y2="554" stroke="#E8A33D" stroke-width="0.7" opacity="0.42"></line><line x1="371" y1="210" x2="715" y2="554" stroke="#E8A33D" stroke-width="0.7" opacity="0.42"></line><line x1="380" y1="210" x2="724" y2="554" stroke="#E8A33D" stroke-width="0.7" opacity="0.42"></line><line x1="389" y1="210" x2="733" y2="554" stroke="#E8A33D" stroke-width="0.7" opacity="0.42"></line><line x1="398" y1="210" x2="742" y2="554" stroke="#E8A33D" stroke-width="0.7" opacity="0.42"></line><line x1="407" y1="210" x2="751" y2="554" stroke="#E8A33D" stroke-width="0.7" opacity="0.42"></line><line x1="416" y1="210" x2="760" y2="554" stroke="#E8A33D" stroke-width="0.7" opacity="0.42"></line><line x1="425" y1="210" x2="769" y2="554" stroke="#E8A33D" stroke-width="0.7" opacity="0.42"></line><line x1="434" y1="210" x2="778" y2="554" stroke="#E8A33D" stroke-width="0.7" opacity="0.42"></line><line x1="443" y1="210" x2="787" y2="554" stroke="#E8A33D" stroke-width="0.7" opacity="0.42"></line><line x1="452" y1="210" x2="796" y2="554" stroke="#E8A33D" stroke-width="0.7" opacity="0.42"></line><line x1="461" y1="210" x2="805" y2="554" stroke="#E8A33D" stroke-width="0.7" opacity="0.42"></line><line x1="470" y1="210" x2="814" y2="554" stroke="#E8A33D" stroke-width="0.7" opacity="0.42"></line><line x1="479" y1="210" x2="823" y2="554" stroke="#E8A33D" stroke-width="0.7" opacity="0.42"></line><line x1="488" y1="210" x2="832" y2="554" stroke="#E8A33D" stroke-width="0.7" opacity="0.42"></line><line x1="497" y1="210" x2="841" y2="554" stroke="#E8A33D" stroke-width="0.7" opacity="0.42"></line><line x1="506" y1="210" x2="850" y2="554" stroke="#E8A33D" stroke-width="0.7" opacity="0.42"></line><line x1="515" y1="210" x2="859" y2="554" stroke="#E8A33D" stroke-width="0.7" opacity="0.42"></line><line x1="524" y1="210" x2="868" y2="554" stroke="#E8A33D" stroke-width="0.7" opacity="0.42"></line><line x1="533" y1="210" x2="877" y2="554" stroke="#E8A33D" stroke-width="0.7" opacity="0.42"></line><line x1="542" y1="210" x2="886" y2="554" stroke="#E8A33D" stroke-width="0.7" opacity="0.42"></line><line x1="551" y1="210" x2="895" y2="554" stroke="#E8A33D" stroke-width="0.7" opacity="0.42"></line><line x1="560" y1="210" x2="904" y2="554" stroke="#E8A33D" stroke-width="0.7" opacity="0.42"></line><line x1="569" y1="210" x2="913" y2="554" stroke="#E8A33D" stroke-width="0.7" opacity="0.42"></line><line x1="578" y1="210" x2="922" y2="554" stroke="#E8A33D" stroke-width="0.7" opacity="0.42"></line><line x1="587" y1="210" x2="931" y2="554" stroke="#E8A33D" stroke-width="0.7" opacity="0.42"></line><line x1="596" y1="210" x2="940" y2="554" stroke="#E8A33D" stroke-width="0.7" opacity="0.42"></line><line x1="605" y1="210" x2="949" y2="554" stroke="#E8A33D" stroke-width="0.7" opacity="0.42"></line><line x1="614" y1="210" x2="958" y2="554" stroke="#E8A33D" stroke-width="0.7" opacity="0.42"></line><line x1="623" y1="210" x2="967" y2="554" stroke="#E8A33D" stroke-width="0.7" opacity="0.42"></line><line x1="632" y1="210" x2="976" y2="554" stroke="#E8A33D" stroke-width="0.7" opacity="0.42"></line><line x1="641" y1="210" x2="985" y2="554" stroke="#E8A33D" stroke-width="0.7" opacity="0.42"></line><line x1="650" y1="210" x2="994" y2="554" stroke="#E8A33D" stroke-width="0.7" opacity="0.42"></line><line x1="659" y1="210" x2="1003" y2="554" stroke="#E8A33D" stroke-width="0.7" opacity="0.42"></line><line x1="668" y1="210" x2="1012" y2="554" stroke="#E8A33D" stroke-width="0.7" opacity="0.42"></line></g><rect x="156" y="210" width="344" height="344" fill="none" stroke="#5C6B7A" stroke-width="1.2"></rect><line x1="328" y1="210" x2="328" y2="554" stroke="#5C6B7A" stroke-width="0.8"></line><line x1="156" y1="382" x2="500" y2="382" stroke="#5C6B7A" stroke-width="0.8"></line><text x="170" y="236" font-size="10.5" fill="#1B3A5C" font-weight="700">Scoped autonomy</text><text x="170" y="250" font-size="8.8" fill="#1A1A1A" font-weight="400">Green-channel clearance: L4, but</text><text x="170" y="260.5" font-size="8.8" fill="#1A1A1A" font-weight="400">a tiny reversible action set.</text><text x="342" y="236" font-size="10.5" fill="#B77A16" font-weight="700">⚠  Danger</text><text x="342" y="250" font-size="8.8" fill="#1A1A1A" font-weight="400">High agency + high autonomy: the</text><text x="342" y="260.5" font-size="8.8" fill="#1A1A1A" font-weight="400">demo that impresses, the</text><text x="342" y="271" font-size="8.8" fill="#1A1A1A" font-weight="400">incident that follows.</text><text x="170" y="408" font-size="10.5" fill="#1B3A5C" font-weight="700">The expensive chatbot</text><text x="170" y="422" font-size="8.8" fill="#1A1A1A" font-weight="400">Low agency + low autonomy: cost</text><text x="170" y="432.5" font-size="8.8" fill="#1A1A1A" font-weight="400">without capability.</text><text x="342" y="408" font-size="10.5" fill="#1B3A5C" font-weight="700">Investigation agent</text><text x="342" y="422" font-size="8.8" fill="#1A1A1A" font-weight="400">Broad read-access, but checks in</text><text x="342" y="432.5" font-size="8.8" fill="#1A1A1A" font-weight="400">before anything consequential.</text><line x1="140" y1="554" x2="140" y2="206" stroke="#5C6B7A" stroke-width="1.2"></line><path d="M136 214 L140 204 L144 214Z" fill="#5C6B7A"></path><text x="126" y="382" font-size="9.5" fill="#5C6B7A" font-weight="700" letter-spacing="0.5" text-anchor="middle" transform="rotate(-90 126 382)">AUTONOMY (independence)</text><text x="150" y="216" font-size="8" fill="#5C6B7A" font-weight="400" text-anchor="end">high</text><text x="150" y="554" font-size="8" fill="#5C6B7A" font-weight="400" text-anchor="end">low</text><line x1="156" y1="570" x2="504" y2="570" stroke="#5C6B7A" stroke-width="1.2"></line><path d="M496 566 L506 570 L496 574Z" fill="#5C6B7A"></path><text x="328" y="588" font-size="9.5" fill="#5C6B7A" font-weight="700" letter-spacing="0.5" text-anchor="middle">AGENCY (tool reach)</text><text x="156" y="588" font-size="8" fill="#5C6B7A" font-weight="400">low</text><text x="500" y="588" font-size="8" fill="#5C6B7A" font-weight="400" text-anchor="end">high</text><rect x="40" y="614" width="496" height="34" rx="4" fill="#5C6B7A"></rect><rect x="40" y="614" width="5" height="34" rx="2.5" fill="#E8A33D"></rect><text x="292" y="635.5" text-anchor="middle" font-size="10.6" font-weight="600" fill="#fff" letter-spacing="0.2">Grant capability or independence deliberately — never both by default.</text></g>
</svg>