<?xml version="1.0"?>
<svg xmlns="http://www.w3.org/2000/svg" viewBox="0 0 576 864" width="576" height="864">
<defs></defs>
<rect width="576" height="864" fill="#fff"></rect>
<text x="72" y="150" font-family="&#39;Inter&#39;,sans-serif" font-size="11" fill="#5C6B7A" font-weight="600" letter-spacing="2.5">PART III</text><line x1="392" y1="150" x2="452" y2="214" stroke="#C3D0DB" stroke-width="1"></line><line x1="512" y1="158" x2="452" y2="214" stroke="#C3D0DB" stroke-width="1"></line><line x1="452" y1="128" x2="452" y2="214" stroke="#C3D0DB" stroke-width="1"></line><line x1="374" y1="214" x2="452" y2="214" stroke="#C3D0DB" stroke-width="1"></line><line x1="532" y1="216" x2="452" y2="214" stroke="#C3D0DB" stroke-width="1"></line><line x1="402" y1="286" x2="452" y2="214" stroke="#C3D0DB" stroke-width="1"></line><circle cx="392" cy="150" r="5.5" fill="#fff" stroke="#9FB4C8" stroke-width="1.4"></circle><circle cx="512" cy="158" r="5.5" fill="#fff" stroke="#9FB4C8" stroke-width="1.4"></circle><circle cx="452" cy="128" r="5.5" fill="#fff" stroke="#9FB4C8" stroke-width="1.4"></circle><circle cx="374" cy="214" r="5.5" fill="#fff" stroke="#9FB4C8" stroke-width="1.4"></circle><circle cx="532" cy="216" r="5.5" fill="#fff" stroke="#9FB4C8" stroke-width="1.4"></circle><circle cx="402" cy="286" r="5.5" fill="#fff" stroke="#9FB4C8" stroke-width="1.4"></circle><circle cx="452" cy="214" r="10" fill="#E8A33D"></circle><text x="452" y="246" font-family="&#39;Inter&#39;,sans-serif" font-size="8" fill="#5C6B7A" font-weight="600" letter-spacing="0.5" text-anchor="middle">3 of 5</text><text x="66" y="332" font-family="&#39;Inter&#39;,sans-serif" font-size="150" fill="#A7BBCB" font-weight="300">III</text><text x="72" y="392" font-family="&#39;Inter&#39;,sans-serif" font-size="29" fill="#1B3A5C" font-weight="700">Governance and Trust</text><text x="72" y="470" font-family="&#39;Inter&#39;,sans-serif" font-size="11" fill="#5C6B7A" font-weight="600" letter-spacing="2">IN THIS PART</text><line x1="72" y1="482" x2="504" y2="482" stroke="#DCE2E8" stroke-width="0.8"></line><text x="72" y="502" font-family="&#39;Inter&#39;,sans-serif" font-size="18" fill="#1B3A5C" font-weight="700">8</text><text x="112" y="502" font-family="&#39;Source Serif 4&#39;,Georgia,serif" font-size="13.5" fill="#1A1A1A" font-weight="400">Regulatory Landscape</text><line x1="72" y1="524" x2="504" y2="524" stroke="#DCE2E8" stroke-width="0.8"></line><text x="72" y="544" font-family="&#39;Inter&#39;,sans-serif" font-size="18" fill="#1B3A5C" font-weight="700">9</text><text x="112" y="544" font-family="&#39;Source Serif 4&#39;,Georgia,serif" font-size="13.5" fill="#1A1A1A" font-weight="400">Responsible AI</text><line x1="72" y1="566" x2="504" y2="566" stroke="#DCE2E8" stroke-width="0.8"></line><text x="72" y="586" font-family="&#39;Inter&#39;,sans-serif" font-size="18" fill="#1B3A5C" font-weight="700">10</text><text x="112" y="586" font-family="&#39;Source Serif 4&#39;,Georgia,serif" font-size="13.5" fill="#1A1A1A" font-weight="400">Security</text><line x1="72" y1="608" x2="504" y2="608" stroke="#DCE2E8" stroke-width="0.8"></line><text x="72" y="628" font-family="&#39;Inter&#39;,sans-serif" font-size="18" fill="#1B3A5C" font-weight="700">11</text><text x="112" y="628" font-family="&#39;Source Serif 4&#39;,Georgia,serif" font-size="13.5" fill="#1A1A1A" font-weight="400">Data Foundations</text><line x1="72" y1="650" x2="504" y2="650" stroke="#DCE2E8" stroke-width="0.8"></line><text x="288" y="812" font-family="&#39;Inter&#39;,sans-serif" font-size="9" fill="#5C6B7A" font-weight="400" text-anchor="middle">3</text>
</svg>