<?xml version="1.0"?>
<svg xmlns="http://www.w3.org/2000/svg" viewBox="0 0 600 888" width="600" height="888">
<defs></defs>
<rect width="600" height="888" fill="#1B3A5C"></rect><text x="56" y="80" font-family="&#39;Inter&#39;,sans-serif" font-size="11" fill="#8095aa" font-weight="600" letter-spacing="2.5">THE FRONTIER OF TRUSTWORTHY AI</text><line x1="120" y1="150" x2="318" y2="300" stroke="#3E5E7B" stroke-width="1"></line><line x1="250" y1="120" x2="318" y2="300" stroke="#3E5E7B" stroke-width="1"></line><line x1="430" y1="140" x2="318" y2="300" stroke="#3E5E7B" stroke-width="1"></line><line x1="500" y1="230" x2="318" y2="300" stroke="#3E5E7B" stroke-width="1"></line><line x1="170" y1="300" x2="318" y2="300" stroke="#3E5E7B" stroke-width="1"></line><line x1="300" y1="410" x2="318" y2="300" stroke="#3E5E7B" stroke-width="1"></line><line x1="470" y1="380" x2="318" y2="300" stroke="#3E5E7B" stroke-width="1"></line><line x1="210" y1="430" x2="318" y2="300" stroke="#3E5E7B" stroke-width="1"></line><line x1="120" y1="150" x2="250" y2="120" stroke="#33506a" stroke-width="0.8"></line><line x1="430" y1="140" x2="500" y2="230" stroke="#33506a" stroke-width="0.8"></line><line x1="170" y1="300" x2="210" y2="430" stroke="#33506a" stroke-width="0.8"></line><circle cx="120" cy="150" r="7" fill="#0f2a45" stroke="#9FB4C8" stroke-width="1.6"></circle><circle cx="250" cy="120" r="7" fill="#0f2a45" stroke="#9FB4C8" stroke-width="1.6"></circle><circle cx="430" cy="140" r="7" fill="#0f2a45" stroke="#9FB4C8" stroke-width="1.6"></circle><circle cx="500" cy="230" r="7" fill="#0f2a45" stroke="#9FB4C8" stroke-width="1.6"></circle><circle cx="170" cy="300" r="7" fill="#0f2a45" stroke="#9FB4C8" stroke-width="1.6"></circle><circle cx="300" cy="410" r="7" fill="#0f2a45" stroke="#9FB4C8" stroke-width="1.6"></circle><circle cx="470" cy="380" r="7" fill="#0f2a45" stroke="#9FB4C8" stroke-width="1.6"></circle><circle cx="210" cy="430" r="7" fill="#0f2a45" stroke="#9FB4C8" stroke-width="1.6"></circle><circle cx="318" cy="300" r="15" fill="#E8A33D"></circle><circle cx="318" cy="300" r="21" fill="none" stroke="#E8A33D" stroke-width="1.3"></circle><text x="348" y="304" font-family="&#39;Inter&#39;,sans-serif" font-size="9.5" fill="#E8A33D" font-weight="700">the pattern, resolved</text><text x="56" y="690" font-family="&#39;Inter&#39;,sans-serif" font-size="52" fill="#fff" font-weight="800" letter-spacing="-0.5">AI Agents</text><text x="56" y="742" font-family="&#39;Inter&#39;,sans-serif" font-size="52" fill="#fff" font-weight="800" letter-spacing="-0.5">at the Border</text><line x1="58" y1="770" x2="120" y2="770" stroke="#E8A33D" stroke-width="3"></line><text x="58" y="796" font-family="&#39;Inter&#39;,sans-serif" font-size="14.5" fill="#C6D3DE" font-weight="400">An Executive Guide to Trustworthy AI</text><text x="58" y="815" font-family="&#39;Inter&#39;,sans-serif" font-size="14.5" fill="#C6D3DE" font-weight="400">in Trade and Customs</text><text x="58" y="852" font-family="&#39;Inter&#39;,sans-serif" font-size="12" fill="#fff" font-weight="600" letter-spacing="2">MAKSYM NECHEPURENKO</text>
<g stroke="#8a96a3" stroke-width="0.6"><line x1="12" y1="4" x2="12" y2="12"></line><line x1="4" y1="12" x2="12" y2="12"></line><line x1="588" y1="4" x2="588" y2="12"></line><line x1="596" y1="12" x2="588" y2="12"></line><line x1="12" y1="884" x2="12" y2="876"></line><line x1="4" y1="876" x2="12" y2="876"></line><line x1="588" y1="884" x2="588" y2="876"></line><line x1="596" y1="876" x2="588" y2="876"></line></g>
</svg>